# xmcd
#
# Track frame offsets:
#	150
#	19182
#	41195
#	77795
#	134645
#	171348
#	206758
#	243733
#
# Disc length: 3602 seconds
#
# Revision: 0
# Processed by: cddbd v1.4b42PL0 Copyright (c) Steve Scherf et al.
# Submitted via: audiograbber 1.80
#
DISCID=770e1008
DTITLE=Rhett Tyler and Early Warning - Live at Manny's Car Wash - Disk 2
DYEAR=1900
DGENRE=
TTITLE0=Walkin' By Myself
TTITLE1=Slow Down Baby
TTITLE2=Hell Hound
TTITLE3=Boogie Down to Texas
TTITLE4=My Passion
TTITLE5=Walkin' in the Spirit
TTITLE6=How Long Blues
TTITLE7=Devil Got Hold
EXTD=
EXTT0=
EXTT1=
EXTT2=
EXTT3=
EXTT4=
EXTT5=
EXTT6=
EXTT7=
PLAYORDER=
